#N canvas 824 20 854 355 12;
#X declare -path Fraise;
#X obj 20 18 declare -path Fraise;
#X obj 25 62 pied/pied 1;
#X msg 405 299 Ehello;
#X obj 267 300 fruit/send2 fruit0;
#X obj 95 232 print from_fruit0;
#X obj 27 210 fruit/receive fruit0;
#X obj 27 235 route b;
#X obj 27 260 route 0 1;
#X obj 27 285 tgl 20 0 empty empty empty 0 -10 0 12 #fcfcfc #000000 #000000 0 1;
#X obj 57 285 tgl 20 0 empty empty empty 0 -10 0 12 #fcfcfc #000000 #000000 0 1;
#X floatatom 756 122 5 1 255 2 fade_speed - - 0;
#X msg 756 194 c 24 c \$1;
#X msg 267 103 c 128 c 128;
#N canvas 1995 479 453 382 day 0;
#X obj 102 127 vsl 20 100 0 255 0 1 empty empty empty 0 -9 0 12 #ff0400 #000000 #000000 9900 1;
#X obj 125 127 vsl 20 100 0 255 0 1 empty empty empty 0 -9 0 12 #00ff04 #000000 #000000 7300 1;
#X obj 148 127 vsl 20 100 0 255 0 1 empty empty empty 0 -9 0 12 #0446ff #000000 #000000 1500 1;
#X obj 133 235 t b f;
#X obj 180 236 t b f;
#X obj 103 264 pack f f f, f 16;
#X msg 103 289 c 25 c \$1 c \$2 c \$3;
#X obj 103 314 outlet;
#X obj 57 54 inlet;
#X obj 57 79 b;
#X connect 0 0 5 0;
#X connect 1 0 3 0;
#X connect 2 0 4 0;
#X connect 3 0 5 0;
#X connect 3 1 5 1;
#X connect 4 0 5 0;
#X connect 4 1 5 2;
#X connect 5 0 6 0;
#X connect 6 0 7 0;
#X connect 8 0 9 0;
#X connect 9 0 5 0;
#X coords 0 -1 1 1 70 135 1 100 100;
#X restore 394 78 pd day;
#N canvas 1995 479 453 382 night 0;
#X obj 102 314 outlet;
#X obj 102 125 vsl 20 100 0 255 0 1 empty empty empty 0 -9 0 12 #ff0400 #000000 #000000 0 1;
#X obj 125 125 vsl 20 100 0 255 0 1 empty empty empty 0 -9 0 12 #00ff04 #000000 #000000 0 1;
#X obj 148 125 vsl 20 100 0 255 0 1 empty empty empty 0 -9 0 12 #0446ff #000000 #000000 2400 1;
#X obj 132 235 t b f;
#X obj 179 236 t b f;
#X obj 102 264 pack f f f, f 16;
#X msg 102 289 c 26 c \$1 c \$2 c \$3;
#X obj 57 54 inlet;
#X obj 57 79 b;
#X connect 1 0 6 0;
#X connect 2 0 4 0;
#X connect 3 0 5 0;
#X connect 4 0 6 0;
#X connect 4 1 6 1;
#X connect 5 0 6 0;
#X connect 5 1 6 2;
#X connect 6 0 7 0;
#X connect 7 0 0 0;
#X connect 8 0 9 0;
#X connect 9 0 6 0;
#X coords 0 -1 1 1 70 135 1 100 100;
#X restore 471 78 pd night;
#X obj 26 149 fruit/fruit 1 fruit0 0 fw_journuit;
#X msg 756 78 255;
#N canvas 743 346 555 342 tests 0;
#X obj 209 43 vsl 20 100 0 255 0 0 empty empty empty 0 -9 0 12 #ff0400 #000000 #000000 0 1;
#X obj 235 43 vsl 20 100 0 255 0 0 empty empty empty 0 -9 0 12 #00ff04 #000000 #000000 0 1;
#X obj 262 43 vsl 20 100 0 255 0 0 empty empty empty 0 -9 0 12 #0446ff #000000 #000000 0 1;
#X obj 108 188 pack f f f f, f 29;
#X obj 142 162 t b f;
#X obj 209 163 t b f;
#X obj 276 161 t b f;
#X floatatom 108 133 5 0 149 2 which - - 0;
#X obj 108 229 list prepend 20;
#X msg 226 229 20;
#X msg 275 229 23;
#X text 227 211 set;
#X text 274 210 greater;
#X msg 108 255 c \$1 c \$2 c \$3 c \$4 c \$5;
#X obj 108 310 outlet;
#X msg 389 256 c 30 c \$1;
#X obj 389 229 tgl 20 0 empty empty mode_run 0 -10 0 12 #fcfcfc #000000 #000000 0 1;
#X connect 0 0 4 0;
#X connect 1 0 5 0;
#X connect 2 0 6 0;
#X connect 3 0 8 0;
#X connect 4 0 3 0;
#X connect 4 1 3 1;
#X connect 5 0 3 0;
#X connect 5 1 3 2;
#X connect 6 0 3 0;
#X connect 6 1 3 3;
#X connect 7 0 3 0;
#X connect 8 0 13 0;
#X connect 9 0 8 1;
#X connect 10 0 8 1;
#X connect 13 0 14 0;
#X connect 15 0 14 0;
#X connect 16 0 15 0;
#X restore 429 270 pd tests;
#X obj 267 47 bng 20 250 50 0 empty empty SAVE_SETTINGS 0 -10 0 12 #ff0400 #000000 #000000;
#X text 389 26 COLORS;
#X obj 394 51 bng 20 250 50 0 empty empty refresh 25 10 0 12 #fcfcfc #000000 #000000;
#X text 581 28 CYCLE TIME (millis);
#X msg 583 78 1500;
#X msg 583 193 c 28 i \$1;
#X text 753 28 FADE SPEED;
#X text 792 78 (?);
#X obj 267 75 t b b, f 13;
#X connect 2 0 3 1;
#X connect 5 0 6 0;
#X connect 6 0 7 0;
#X connect 6 1 4 0;
#X connect 7 0 8 0;
#X connect 7 1 9 0;
#X connect 10 0 11 0;
#X connect 11 0 3 0;
#X connect 12 0 3 0;
#X connect 13 0 3 0;
#X connect 14 0 3 0;
#X connect 16 0 10 0;
#X connect 17 0 3 0;
#X connect 18 0 26 0;
#X connect 20 0 13 0;
#X connect 20 0 14 0;
#X connect 20 0 22 0;
#X connect 20 0 16 0;
#X connect 22 0 23 0;
#X connect 23 0 3 0;
#X connect 26 0 12 0;
#X connect 26 1 20 0;
