#N canvas 1185 301 596 364 12;
#X declare -path Fraise;
#X obj 20 18 declare -path Fraise;
#X obj 25 62 pied/pied 1;
#X obj 317 280 fruit/send2 fruit0;
#X obj 89 236 print from_fruit0;
#X obj 27 210 fruit/receive fruit0;
#X obj 26 149 fruit/fruit 1 fruit0 0 fw_chrono;
#X obj 27 235 route b;
#X obj 27 260 route 0 1, f 22;
#X obj 27 285 tgl 20 0 empty empty bouton1 0 30 0 12 #fcfcfc #000000 #000000 0 1;
#X obj 102 285 tgl 20 0 empty empty bouton2 0 30 0 12 #fcfcfc #000000 #000000 0 1;
#X msg 246 123 c 128 c 128;
#N canvas 1995 479 453 382 slow 0;
#X obj 102 127 vsl 20 100 0 255 0 1 empty empty empty 0 -9 0 12 #ff0400 #000000 #000000 2100 1;
#X obj 125 127 vsl 20 100 0 255 0 1 empty empty empty 0 -9 0 12 #00ff04 #000000 #000000 1600 1;
#X obj 148 127 vsl 20 100 0 255 0 1 empty empty empty 0 -9 0 12 #0446ff #000000 #000000 900 1;
#X obj 133 235 t b f;
#X obj 180 236 t b f;
#X obj 103 264 pack f f f, f 16;
#X msg 103 289 c 25 c \$1 c \$2 c \$3;
#X obj 103 314 outlet;
#X obj 58 31 inlet;
#X obj 58 56 b;
#X connect 0 0 5 0;
#X connect 1 0 3 0;
#X connect 2 0 4 0;
#X connect 3 0 5 0;
#X connect 3 1 5 1;
#X connect 4 0 5 0;
#X connect 4 1 5 2;
#X connect 5 0 6 0;
#X connect 6 0 7 0;
#X connect 8 0 9 0;
#X connect 9 0 5 0;
#X coords 0 -1 1 1 70 135 1 100 100;
#X restore 341 107 pd slow;
#N canvas 1995 479 453 382 fast 0;
#X obj 102 314 outlet;
#X obj 102 125 vsl 20 100 0 255 0 1 empty empty empty 0 -9 0 12 #ff0400 #000000 #000000 0 1;
#X obj 125 125 vsl 20 100 0 255 0 1 empty empty empty 0 -9 0 12 #00ff04 #000000 #000000 1000 1;
#X obj 148 125 vsl 20 100 0 255 0 1 empty empty empty 0 -9 0 12 #0446ff #000000 #000000 2300 1;
#X obj 132 235 t b f;
#X obj 179 236 t b f;
#X obj 102 264 pack f f f, f 16;
#X msg 102 289 c 26 c \$1 c \$2 c \$3;
#X obj 58 31 inlet;
#X obj 58 56 b;
#X connect 1 0 6 0;
#X connect 2 0 4 0;
#X connect 3 0 5 0;
#X connect 4 0 6 0;
#X connect 4 1 6 1;
#X connect 5 0 6 0;
#X connect 5 1 6 2;
#X connect 6 0 7 0;
#X connect 7 0 0 0;
#X connect 8 0 9 0;
#X connect 9 0 6 0;
#X coords 0 -1 1 1 70 135 1 100 100;
#X restore 418 107 pd fast;
#N canvas 1995 479 453 382 flash 0;
#X obj 102 316 outlet;
#X obj 102 129 vsl 20 100 0 255 0 1 empty empty empty 0 -9 0 12 #ff0400 #000000 #000000 2300 1;
#X obj 125 129 vsl 20 100 0 255 0 1 empty empty empty 0 -9 0 12 #00ff04 #000000 #000000 0 1;
#X obj 148 129 vsl 20 100 0 255 0 1 empty empty empty 0 -9 0 12 #0446ff #000000 #000000 0 1;
#X obj 132 239 t b f;
#X obj 179 240 t b f;
#X obj 102 268 pack f f f, f 16;
#X msg 102 293 c 27 c \$1 c \$2 c \$3;
#X obj 58 31 inlet;
#X obj 58 56 b;
#X connect 1 0 6 0;
#X connect 2 0 4 0;
#X connect 3 0 5 0;
#X connect 4 0 6 0;
#X connect 4 1 6 1;
#X connect 5 0 6 0;
#X connect 5 1 6 2;
#X connect 6 0 7 0;
#X connect 7 0 0 0;
#X connect 8 0 9 0;
#X connect 9 0 6 0;
#X coords 0 -1 1 1 70 135 1 100 100;
#X restore 495 107 pd flash;
#X obj 246 49 bng 20 250 50 0 empty empty SAVE_SETTINGS 0 -10 0 12 #ff0400 #000000 #000000;
#X obj 246 74 t b b, f 25;
#X obj 246 99 del 10;
#N canvas 849 95 981 428 tests 0;
#X obj 825 33 vsl 20 100 0 255 0 0 empty empty empty 0 -9 0 12 #ff0400 #000000 #000000 0 1;
#X obj 851 33 vsl 20 100 0 255 0 0 empty empty empty 0 -9 0 12 #00ff04 #000000 #000000 0 1;
#X obj 878 33 vsl 20 100 0 255 0 0 empty empty empty 0 -9 0 12 #0446ff #000000 #000000 0 1;
#X obj 750 166 pack f f f f, f 29;
#X obj 784 140 t b f;
#X obj 851 141 t b f;
#X obj 918 139 t b f;
#X msg 750 191 c 20 c \$1 c \$2 c \$3 c \$4;
#X floatatom 750 111 5 0 149 2 which - - 0;
#X msg 161 145 c 30 c 0;
#X text 159 126 stop;
#X msg 249 85 c 41 i \$1;
#X floatatom 249 59 5 0 0 0 - - - 0;
#X obj 253 35 hsl 170 20 0 20000 0 0 empty empty freq -2 -10 0 12 #fcfcfc #000000 #000000 0 1;
#X floatatom 246 171 5 0 0 0 - - - 0;
#X obj 249 147 hsl 170 20 0 65000 0 0 empty empty osc_vol -2 -10 0 12 #fcfcfc #000000 #000000 0 1;
#X msg 246 195 c 40 i \$1;
#X floatatom 520 166 9 0 0 0 - - - 0;
#X obj 524 142 hsl 170 20 0 65000 0 0 empty empty release -2 -10 0 12 #fcfcfc #000000 #000000 0 1;
#X msg 520 190 c 43 i \$1;
#X floatatom 519 265 9 0 0 0 - - - 0;
#X obj 523 241 hsl 170 20 0 65000 0 0 empty empty freq_speed -2 -10 0 12 #fcfcfc #000000 #000000 0 1;
#X msg 519 289 c 44 i \$1;
#X msg 436 189 c 45;
#X msg 247 274 c 46 c \$1;
#X msg 247 248 200;
#X text 748 12 Test leds;
#X floatatom 31 121 5 1 64 1 fade_speed - - 0;
#X msg 31 145 c 24 c \$1;
#X msg 31 94 8;
#X text 435 170 flash;
#X text 278 247 master_vol;
#X msg 309 122 30000;
#X msg 292 11 6000;
#X msg 583 114 62000;
#X msg 607 211 70;
#X obj 31 375 outlet, f 19;
#X connect 0 0 4 0;
#X connect 1 0 5 0;
#X connect 2 0 6 0;
#X connect 3 0 7 0;
#X connect 4 0 3 0;
#X connect 4 1 3 1;
#X connect 5 0 3 0;
#X connect 5 1 3 2;
#X connect 6 0 3 0;
#X connect 6 1 3 3;
#X connect 7 0 36 0;
#X connect 8 0 3 0;
#X connect 9 0 36 0;
#X connect 11 0 36 0;
#X connect 12 0 11 0;
#X connect 13 0 12 0;
#X connect 14 0 16 0;
#X connect 15 0 14 0;
#X connect 16 0 36 0;
#X connect 17 0 19 0;
#X connect 18 0 17 0;
#X connect 19 0 36 0;
#X connect 20 0 22 0;
#X connect 21 0 20 0;
#X connect 22 0 36 0;
#X connect 23 0 36 0;
#X connect 24 0 36 0;
#X connect 25 0 24 0;
#X connect 27 0 28 0;
#X connect 28 0 36 0;
#X connect 29 0 27 0;
#X connect 32 0 15 0;
#X connect 33 0 13 0;
#X connect 34 0 18 0;
#X connect 35 0 21 0;
#X restore 251 279 pd tests;
#X msg 454 280 Ehello;
#X text 441 75 COLORS;
#X connect 4 0 6 0;
#X connect 6 0 7 0;
#X connect 6 1 3 0;
#X connect 7 0 8 0;
#X connect 7 1 9 0;
#X connect 10 0 2 0;
#X connect 11 0 2 0;
#X connect 12 0 2 0;
#X connect 13 0 2 0;
#X connect 14 0 15 0;
#X connect 15 0 16 0;
#X connect 15 1 11 0;
#X connect 15 1 12 0;
#X connect 15 1 13 0;
#X connect 16 0 10 0;
#X connect 17 0 2 0;
#X connect 18 0 2 1;
